<?xml version="1.0" encoding="UTF-8" standalone="no"?>
<svg
   xmlns:dc="http://purl.org/dc/elements/1.1/"
   xmlns:cc="http://creativecommons.org/ns#"
   xmlns:rdf="http://www.w3.org/1999/02/22-rdf-syntax-ns#"
   xmlns:svg="http://www.w3.org/2000/svg"
   xmlns="http://www.w3.org/2000/svg"
   xmlns:sodipodi="http://sodipodi.sourceforge.net/DTD/sodipodi-0.dtd"
   xmlns:inkscape="http://www.inkscape.org/namespaces/inkscape"
   viewBox="0 0 64 64"
   version="1.1"
   id="svg4152"
   height="64"
   width="64"
   inkscape:version="0.91 r13725"
   sodipodi:docname="anexo.svg">
  <sodipodi:namedview
     pagecolor="#ffffff"
     bordercolor="#666666"
     borderopacity="1"
     objecttolerance="10"
     gridtolerance="10"
     guidetolerance="10"
     inkscape:pageopacity="0"
     inkscape:pageshadow="2"
     inkscape:window-width="960"
     inkscape:window-height="1021"
     id="namedview4884"
     showgrid="false"
     inkscape:zoom="7.375"
     inkscape:cx="26.195945"
     inkscape:cy="43.127478"
     inkscape:window-x="0"
     inkscape:window-y="27"
     inkscape:window-maximized="0"
     inkscape:current-layer="svg4152" />
  <defs
     id="defs4154" />
  <metadata
     id="metadata4157">
    <rdf:RDF>
      <cc:Work
         rdf:about="">
        <dc:format>image/svg+xml</dc:format>
        <dc:type
           rdf:resource="http://purl.org/dc/dcmitype/StillImage" />
        <dc:title></dc:title>
      </cc:Work>
    </rdf:RDF>
  </metadata>
  <g
     id="layer1">
    <g
       style="fill:#ffecb3;fill-opacity:0.86274511"
       transform="translate(0.72727509,-7e-7)"
       id="layer2">
      <path
         style="fill:#ffecb3;fill-opacity:0.86274511;fill-rule:evenodd;stroke:none;stroke-width:1px;stroke-linecap:butt;stroke-linejoin:miter;stroke-opacity:1"
         d="m 38.055201,3.3173816 -0.03214,4.1140758 c 0,0 -0.385694,3.7605226 -0.385694,3.8890876 0,0.128565 0.449977,3.728381 0.578541,4.049793 0.128565,0.321412 0.417836,3.43911 0.77139,3.95337 0.353553,0.514259 4.917606,2.63558 5.592571,2.63558 0.674966,0 6.010408,0.09642 6.138973,0.09642 0.128565,0 4.146217,-1.671343 4.146217,-1.671343 L 55.18647,20.030815 38.601602,2.9959694 Z"
         id="path4871" />
    </g>
    <g
       style="fill:#ffc107;fill-opacity:1"
       transform="translate(0.72727509,-7e-7)"
       id="layer1-6">
      <path
         id="path3921"
         d="m 16.636362,2.5454546 c -3.049999,0 -5.517726,2.6181813 -5.517726,5.8181813 l -0.02773,46.5454551 c 0,3.2 2.467727,5.818183 5.517726,5.818183 l 33.300454,0 c 3.05,0 5.545455,-2.618183 5.545455,-5.818183 L 55.454544,20 38.818181,2.5454546 Z M 38.936529,3.5097484 54.809605,20.058875 C 37.188865,20.214889 39.359559,22.133976 38.936529,3.5097484 Z"
         style="fill:#ffc107;fill-opacity:1" />
    </g>
  </g>
  <g
     transform="translate(4.2036992,-0.81346364)"
     style="font-style:normal;font-variant:normal;font-weight:normal;font-stretch:normal;font-size:6.25px;line-height:125%;font-family:Roboto;-inkscape-font-specification:'Roboto, Normal';text-align:start;letter-spacing:0px;word-spacing:0px;writing-mode:lr-tb;text-anchor:start;fill:#000000;fill-opacity:1;stroke:none;stroke-width:1px;stroke-linecap:butt;stroke-linejoin:miter;stroke-opacity:1"
     id="flowRoot4139">
    <path
       d="m 19.744385,45.379471 -3.723145,0 -0.842285,2.288819 -1.226807,0 3.43628,-8.886719 1.031494,0 3.381348,8.886719 -1.226807,0 -0.830078,-2.288819 z m -3.35083,-1.00708 2.990722,0 -1.464843,-4.04663 -0.03662,0 -1.489257,4.04663 z"
       style="font-size:12.5px;fill:#ffffff"
       id="path5470" />
    <path
       d="m 29.75415,47.66829 -1.202392,0 -4.278565,-6.872559 -0.03662,0.01221 0,6.860352 -1.202392,0 0,-8.886719 1.202392,0 4.278565,6.860352 0.03662,-0.01221 0,-6.848145 1.202392,0 0,8.886719 z"
       style="font-size:12.5px;fill:#ffffff"
       id="path5472" />
    <path
       d="m 37.21875,43.548417 -4.071045,0 0,3.179931 4.693604,0 0,0.939942 -5.895997,0 0,-8.886719 5.828858,0 0,0.946045 -4.626465,0 0,2.874756 4.071045,0 0,0.946045 z"
       style="font-size:12.5px;fill:#ffffff"
       id="path5474" />
    <path
       d="m 42.11377,42.248368 2.075195,-3.466797 1.452637,0 -2.819825,4.406738 2.88086,4.479981 -1.434326,0 -2.130127,-3.527832 -2.136231,3.527832 -1.452637,0 2.88086,-4.479981 -2.819824,-4.406738 1.440429,0 2.062989,3.466797 z"
       style="font-size:12.5px;fill:#ffffff"
       id="path5476" />
  </g>
</svg>
