<?xml version="1.0" encoding="UTF-8" standalone="no"?>
<svg
   xmlns:dc="http://purl.org/dc/elements/1.1/"
   xmlns:cc="http://creativecommons.org/ns#"
   xmlns:rdf="http://www.w3.org/1999/02/22-rdf-syntax-ns#"
   xmlns:svg="http://www.w3.org/2000/svg"
   xmlns="http://www.w3.org/2000/svg"
   xmlns:sodipodi="http://sodipodi.sourceforge.net/DTD/sodipodi-0.dtd"
   xmlns:inkscape="http://www.inkscape.org/namespaces/inkscape"
   viewBox="0 0 64 64"
   version="1.1"
   id="svg4152"
   height="64"
   width="64"
   inkscape:version="0.91 r13725"
   sodipodi:docname="cedulaDeNotificacion.svg">
  <sodipodi:namedview
     pagecolor="#ffffff"
     bordercolor="#666666"
     borderopacity="1"
     objecttolerance="10"
     gridtolerance="10"
     guidetolerance="10"
     inkscape:pageopacity="0"
     inkscape:pageshadow="2"
     inkscape:window-width="1920"
     inkscape:window-height="1053"
     id="namedview5530"
     showgrid="false"
     inkscape:zoom="3.6875"
     inkscape:cx="0.27118644"
     inkscape:cy="32"
     inkscape:window-x="0"
     inkscape:window-y="27"
     inkscape:window-maximized="1"
     inkscape:current-layer="svg4152" />
  <defs
     id="defs4154" />
  <metadata
     id="metadata4157">
    <rdf:RDF>
      <cc:Work
         rdf:about="">
        <dc:format>image/svg+xml</dc:format>
        <dc:type
           rdf:resource="http://purl.org/dc/dcmitype/StillImage" />
        <dc:title></dc:title>
      </cc:Work>
    </rdf:RDF>
  </metadata>
  <g
     id="layer1">
    <g
       style="fill:#cfd8dc;fill-opacity:0.86274511"
       transform="translate(0.72727509,-7e-7)"
       id="layer2">
      <path
         style="fill:#cfd8dc;fill-opacity:0.86274511;fill-rule:evenodd;stroke:none;stroke-width:1px;stroke-linecap:butt;stroke-linejoin:miter;stroke-opacity:1"
         d="m 38.055201,3.3173816 -0.03214,4.1140758 c 0,0 -0.385694,3.7605226 -0.385694,3.8890876 0,0.128565 0.449977,3.728381 0.578541,4.049793 0.128565,0.321412 0.417836,3.43911 0.77139,3.95337 0.353553,0.514259 4.917606,2.63558 5.592571,2.63558 0.674966,0 6.010408,0.09642 6.138973,0.09642 0.128565,0 4.146217,-1.671343 4.146217,-1.671343 L 55.18647,20.030815 38.601602,2.9959694 Z"
         id="path4871" />
    </g>
    <g
       style="fill:#607d8b;fill-opacity:1"
       transform="translate(0.72727509,-7e-7)"
       id="layer1-6">
      <path
         id="path3921"
         d="m 16.636362,2.5454546 c -3.049999,0 -5.517726,2.6181813 -5.517726,5.8181813 l -0.02773,46.5454551 c 0,3.2 2.467727,5.818183 5.517726,5.818183 l 33.300454,0 c 3.05,0 5.545455,-2.618183 5.545455,-5.818183 L 55.454544,20 38.818181,2.5454546 Z M 38.936529,3.5097484 54.809605,20.058875 C 37.188865,20.214889 39.359559,22.133976 38.936529,3.5097484 Z"
         style="fill:#607d8b;fill-opacity:1" />
    </g>
  </g>
  <g
     transform="translate(2.102012,-1.3562586)"
     style="font-style:normal;font-variant:normal;font-weight:normal;font-stretch:normal;font-size:6.25px;line-height:125%;font-family:Roboto;-inkscape-font-specification:'Roboto, Normal';text-align:start;letter-spacing:0px;word-spacing:0px;writing-mode:lr-tb;text-anchor:start;fill:#000000;fill-opacity:1;stroke:none;stroke-width:1px;stroke-linecap:butt;stroke-linejoin:miter;stroke-opacity:1"
     id="flowRoot6805">
    <path
       d="m 23.37915,45.36702 0.01221,0.03662 q 0.02441,1.251221 -0.878906,2.093506 -0.90332,0.842285 -2.386474,0.842285 -1.507569,0 -2.459717,-1.068115 -0.946045,-1.068115 -0.946045,-2.709961 l 0,-1.58081 q 0,-1.641846 0.946045,-2.709961 0.952148,-1.074219 2.459717,-1.074219 1.507568,0 2.398681,0.805664 0.891113,0.799561 0.866699,2.124023 l -0.01221,0.03662 -1.153564,0 q 0,-0.933838 -0.549316,-1.477051 -0.549317,-0.543213 -1.550293,-0.543213 -1.007081,0 -1.605225,0.811767 -0.598145,0.811768 -0.598145,2.014161 l 0,1.593017 q 0,1.2146 0.598145,2.026367 0.598144,0.811768 1.605225,0.811768 1.000976,0 1.550293,-0.537109 0.549316,-0.543213 0.549316,-1.495362 l 1.153564,0 z"
       style="font-size:12.5px;fill:#ffffff"
       id="path14695" />
    <path
       d="m 30.282227,44.091386 -4.071045,0 0,3.179931 4.693603,0 0,0.939942 -5.895996,0 0,-8.886719 5.828857,0 0,0.946045 -4.626464,0 0,2.874756 4.071045,0 0,0.946045 z"
       style="font-size:12.5px;fill:#ffffff"
       id="path14697" />
    <path
       d="m 32.308594,48.211259 0,-8.886719 2.728271,0 q 1.745606,0 2.801514,1.074219 1.055908,1.068115 1.055908,2.764892 l 0,1.2146 q 0,1.702881 -1.055908,2.770996 -1.055908,1.062012 -2.801514,1.062012 l -2.728271,0 z m 1.202392,-7.940674 0,7.000732 1.525879,0 q 1.23291,0 1.940918,-0.811767 0.714112,-0.811768 0.714112,-2.081299 l 0,-1.226807 q 0,-1.257324 -0.714112,-2.069092 -0.708008,-0.811767 -1.940918,-0.811767 l -1.525879,0 z"
       style="font-size:12.5px;fill:#ffffff"
       id="path14699" />
    <path
       d="m 47.030273,39.32454 0,6.02417 q 0,1.452636 -0.946044,2.221679 -0.939942,0.769043 -2.459717,0.769043 -1.464844,0 -2.380371,-0.769043 -0.909424,-0.775146 -0.909424,-2.221679 l 0,-6.02417 1.202392,0 0,6.02417 q 0,1.00708 0.573731,1.531982 0.57373,0.518799 1.513672,0.518799 0.988769,0 1.593017,-0.518799 0.610352,-0.524902 0.610352,-1.531982 l 0,-6.02417 1.202392,0 z"
       style="font-size:12.5px;fill:#ffffff"
       id="path14701" />
  </g>
</svg>
