<?xml version="1.0" encoding="UTF-8" standalone="no"?>
<svg
   xmlns:dc="http://purl.org/dc/elements/1.1/"
   xmlns:cc="http://creativecommons.org/ns#"
   xmlns:rdf="http://www.w3.org/1999/02/22-rdf-syntax-ns#"
   xmlns:svg="http://www.w3.org/2000/svg"
   xmlns="http://www.w3.org/2000/svg"
   xmlns:sodipodi="http://sodipodi.sourceforge.net/DTD/sodipodi-0.dtd"
   xmlns:inkscape="http://www.inkscape.org/namespaces/inkscape"
   viewBox="0 0 64 64"
   version="1.1"
   id="svg4152"
   height="64"
   width="64"
   inkscape:version="0.91 r13725"
   sodipodi:docname="disposicion.svg">
  <sodipodi:namedview
     pagecolor="#ffffff"
     bordercolor="#666666"
     borderopacity="1"
     objecttolerance="10"
     gridtolerance="10"
     guidetolerance="10"
     inkscape:pageopacity="0"
     inkscape:pageshadow="2"
     inkscape:window-width="960"
     inkscape:window-height="1021"
     id="namedview8922"
     showgrid="false"
     inkscape:zoom="7.375"
     inkscape:cx="32.317881"
     inkscape:cy="44.082275"
     inkscape:window-x="0"
     inkscape:window-y="27"
     inkscape:window-maximized="0"
     inkscape:current-layer="svg4152" />
  <defs
     id="defs4154" />
  <metadata
     id="metadata4157">
    <rdf:RDF>
      <cc:Work
         rdf:about="">
        <dc:format>image/svg+xml</dc:format>
        <dc:type
           rdf:resource="http://purl.org/dc/dcmitype/StillImage" />
        <dc:title></dc:title>
      </cc:Work>
    </rdf:RDF>
  </metadata>
  <g
     id="layer1">
    <g
       style="fill:#f5f5f5;fill-opacity:0.86274511"
       transform="translate(0.72727509,-7e-7)"
       id="layer2">
      <path
         style="fill:#f5f5f5;fill-opacity:0.86274511;fill-rule:evenodd;stroke:none;stroke-width:1px;stroke-linecap:butt;stroke-linejoin:miter;stroke-opacity:1"
         d="m 38.055201,3.3173816 -0.03214,4.1140758 c 0,0 -0.385694,3.7605226 -0.385694,3.8890876 0,0.128565 0.449977,3.728381 0.578541,4.049793 0.128565,0.321412 0.417836,3.43911 0.77139,3.95337 0.353553,0.514259 4.917606,2.63558 5.592571,2.63558 0.674966,0 6.010408,0.09642 6.138973,0.09642 0.128565,0 4.146217,-1.671343 4.146217,-1.671343 L 55.18647,20.030815 38.601602,2.9959694 Z"
         id="path4871" />
    </g>
    <g
       style="fill:#9e9e9e;fill-opacity:1"
       transform="translate(0.72727509,-7e-7)"
       id="layer1-6">
      <path
         id="path3921"
         d="m 16.636362,2.5454546 c -3.049999,0 -5.517726,2.6181813 -5.517726,5.8181813 l -0.02773,46.5454551 c 0,3.2 2.467727,5.818183 5.517726,5.818183 l 33.300454,0 c 3.05,0 5.545455,-2.618183 5.545455,-5.818183 L 55.454544,20 38.818181,2.5454546 Z M 38.936529,3.5097484 54.809605,20.058875 C 37.188865,20.214889 39.359559,22.133976 38.936529,3.5097484 Z"
         style="fill:#9e9e9e;fill-opacity:1" />
    </g>
  </g>
  <g
     transform="translate(4.8136492,-1.3564324)"
     style="font-style:normal;font-variant:normal;font-weight:normal;font-stretch:normal;font-size:6.25px;line-height:125%;font-family:Roboto;-inkscape-font-specification:'Roboto, Normal';text-align:start;letter-spacing:0px;word-spacing:0px;writing-mode:lr-tb;text-anchor:start;fill:#000000;fill-opacity:1;stroke:none;stroke-width:1px;stroke-linecap:butt;stroke-linejoin:miter;stroke-opacity:1"
     id="flowRoot6805">
    <path
       d="m 17.098633,48.211259 0,-8.886719 2.728271,0 q 1.745606,0 2.801514,1.074219 1.055908,1.068115 1.055908,2.764892 l 0,1.2146 q 0,1.702881 -1.055908,2.770996 -1.055908,1.062012 -2.801514,1.062012 l -2.728271,0 z m 1.202392,-7.940674 0,7.000732 1.525879,0 q 1.23291,0 1.940918,-0.811767 0.714112,-0.811768 0.714112,-2.081299 l 0,-1.226807 q 0,-1.257324 -0.714112,-2.069092 -0.708008,-0.811767 -1.940918,-0.811767 l -1.525879,0 z"
       style="font-size:12.5px;fill:#ffffff"
       id="path9489" />
    <path
       d="m 26.595703,48.211259 -1.208496,0 0,-8.886719 1.208496,0 0,8.886719 z"
       style="font-size:12.5px;fill:#ffffff"
       id="path9491" />
    <path
       d="m 33.706299,45.971268 q 0,-0.610351 -0.457764,-1.019287 -0.457764,-0.415039 -1.623535,-0.695801 -1.409912,-0.335693 -2.203369,-0.988769 -0.787354,-0.653076 -0.787354,-1.641846 0,-1.037597 0.848389,-1.733398 0.854492,-0.695801 2.209473,-0.695801 1.45874,0 2.319336,0.799561 0.866699,0.79956 0.836181,1.855468 l -0.01221,0.03662 -1.147461,0 q 0,-0.78125 -0.518799,-1.263427 -0.512695,-0.482178 -1.47705,-0.482178 -0.897217,0 -1.379395,0.408935 -0.476074,0.402832 -0.476074,1.055909 0,0.579834 0.518799,0.970459 0.518799,0.384521 1.68457,0.67749 1.403809,0.3479 2.136231,1.02539 0.732421,0.677491 0.732421,1.678467 0,1.074219 -0.878906,1.727295 -0.878906,0.653076 -2.294922,0.653076 -1.330566,0 -2.355957,-0.720214 -1.019287,-0.720215 -0.988769,-1.928711 l 0.01221,-0.03662 1.147461,0 q 0,0.854492 0.628662,1.300048 0.628662,0.445557 1.556396,0.445557 0.909424,0 1.44043,-0.384522 0.531006,-0.384521 0.531006,-1.043701 z"
       style="font-size:12.5px;fill:#ffffff"
       id="path9493" />
    <path
       d="m 37.856689,44.646805 0,3.564454 -1.202392,0 0,-8.886719 3.399658,0 q 1.422119,0 2.209473,0.732422 0.787353,0.732422 0.787353,1.928711 0,1.214599 -0.787353,1.940918 -0.787354,0.720214 -2.209473,0.720214 l -2.197266,0 z m 0,-0.939941 2.197266,0 q 0.90332,0 1.348877,-0.482178 0.445557,-0.488281 0.445557,-1.226806 0,-0.738526 -0.45166,-1.232911 -0.445557,-0.494384 -1.342774,-0.494384 l -2.197266,0 0,3.436279 z"
       style="font-size:12.5px;fill:#ffffff"
       id="path9495" />
  </g>
</svg>
