<?xml version="1.0" encoding="UTF-8" standalone="no"?>
<svg
   xmlns:dc="http://purl.org/dc/elements/1.1/"
   xmlns:cc="http://creativecommons.org/ns#"
   xmlns:rdf="http://www.w3.org/1999/02/22-rdf-syntax-ns#"
   xmlns:svg="http://www.w3.org/2000/svg"
   xmlns="http://www.w3.org/2000/svg"
   xmlns:sodipodi="http://sodipodi.sourceforge.net/DTD/sodipodi-0.dtd"
   xmlns:inkscape="http://www.inkscape.org/namespaces/inkscape"
   viewBox="0 0 64 64"
   version="1.1"
   id="svg4152"
   height="64"
   width="64"
   inkscape:version="0.91 r13725"
   sodipodi:docname="informe.svg">
  <sodipodi:namedview
     pagecolor="#ffffff"
     bordercolor="#666666"
     borderopacity="1"
     objecttolerance="10"
     gridtolerance="10"
     guidetolerance="10"
     inkscape:pageopacity="0"
     inkscape:pageshadow="2"
     inkscape:window-width="960"
     inkscape:window-height="1021"
     id="namedview9568"
     showgrid="false"
     inkscape:zoom="5.2149125"
     inkscape:cx="10.835199"
     inkscape:cy="41.690298"
     inkscape:window-x="0"
     inkscape:window-y="27"
     inkscape:window-maximized="0"
     inkscape:current-layer="svg4152" />
  <defs
     id="defs4154" />
  <metadata
     id="metadata4157">
    <rdf:RDF>
      <cc:Work
         rdf:about="">
        <dc:format>image/svg+xml</dc:format>
        <dc:type
           rdf:resource="http://purl.org/dc/dcmitype/StillImage" />
        <dc:title></dc:title>
      </cc:Work>
    </rdf:RDF>
  </metadata>
  <g
     id="layer1">
    <g
       style="fill:#c5cae9;fill-opacity:0.86274511"
       transform="translate(0.72727509,-7e-7)"
       id="layer2">
      <path
         style="fill:#c5cae9;fill-opacity:0.86274511;fill-rule:evenodd;stroke:none;stroke-width:1px;stroke-linecap:butt;stroke-linejoin:miter;stroke-opacity:1"
         d="m 38.055201,3.3173816 -0.03214,4.1140758 c 0,0 -0.385694,3.7605226 -0.385694,3.8890876 0,0.128565 0.449977,3.728381 0.578541,4.049793 0.128565,0.321412 0.417836,3.43911 0.77139,3.95337 0.353553,0.514259 4.917606,2.63558 5.592571,2.63558 0.674966,0 6.010408,0.09642 6.138973,0.09642 0.128565,0 4.146217,-1.671343 4.146217,-1.671343 L 55.18647,20.030815 38.601602,2.9959694 Z"
         id="path4871" />
    </g>
    <g
       style="fill:#3f51b5;fill-opacity:1"
       transform="translate(0.72727509,-7e-7)"
       id="layer1-6">
      <path
         id="path3921"
         d="m 16.636362,2.5454546 c -3.049999,0 -5.517726,2.6181813 -5.517726,5.8181813 l -0.02773,46.5454551 c 0,3.2 2.467727,5.818183 5.517726,5.818183 l 33.300454,0 c 3.05,0 5.545455,-2.618183 5.545455,-5.818183 L 55.454544,20 38.818181,2.5454546 Z M 38.936529,3.5097484 54.809605,20.058875 C 37.188865,20.214889 39.359559,22.133976 38.936529,3.5097484 Z"
         style="fill:#3f51b5;fill-opacity:1" />
    </g>
  </g>
  <g
     transform="translate(4.5946366,-1.3564324)"
     style="font-style:normal;font-variant:normal;font-weight:normal;font-stretch:normal;font-size:6.25px;line-height:125%;font-family:Roboto;-inkscape-font-specification:'Roboto, Normal';text-align:start;letter-spacing:0px;word-spacing:0px;writing-mode:lr-tb;text-anchor:start;fill:#000000;fill-opacity:1;stroke:none;stroke-width:1px;stroke-linecap:butt;stroke-linejoin:miter;stroke-opacity:1"
     id="flowRoot6805">
    <path
       d="m 18.368164,48.211259 -1.208496,0 0,-8.886719 1.208496,0 0,8.886719 z"
       style="font-size:12.5px;fill:#ffffff"
       id="path10135" />
    <path
       d="m 27.358643,48.211259 -1.202393,0 -4.278564,-6.872559 -0.03662,0.01221 0,6.860352 -1.202392,0 0,-8.886719 1.202392,0 4.278565,6.860351 0.03662,-0.01221 0,-6.848144 1.202393,0 0,8.886719 z"
       style="font-size:12.5px;fill:#ffffff"
       id="path10137" />
    <path
       d="m 34.804932,44.280594 -4.052735,0 0,3.930665 -1.202392,0 0,-8.886719 5.877685,0 0,0.946045 -4.675293,0 0,3.063965 4.052735,0 0,0.946044 z"
       style="font-size:12.5px;fill:#ffffff"
       id="path10139" />
    <path
       d="m 43.55127,44.561356 q 0,1.629639 -1.013184,2.703858 -1.00708,1.074218 -2.618408,1.074218 -1.556397,0 -2.532959,-1.074218 -0.970459,-1.074219 -0.970459,-2.703858 l 0,-1.58081 q 0,-1.623535 0.970459,-2.703858 0.976562,-1.080322 2.532959,-1.080322 1.611328,0 2.618408,1.080322 1.013184,1.074219 1.013184,2.703858 l 0,1.58081 z m -1.202393,-1.593017 q 0,-1.220703 -0.65918,-2.001953 -0.659179,-0.78125 -1.770019,-0.78125 -1.049805,0 -1.678467,0.78125 -0.622559,0.78125 -0.622559,2.001953 l 0,1.593017 q 0,1.23291 0.622559,2.01416 0.628662,0.78125 1.678467,0.78125 1.116943,0 1.770019,-0.775146 0.65918,-0.78125 0.65918,-2.020264 l 0,-1.593017 z"
       style="font-size:12.5px;fill:#ffffff"
       id="path10141" />
  </g>
</svg>
