<?xml version="1.0" encoding="UTF-8" standalone="no"?>
<svg
   xmlns:dc="http://purl.org/dc/elements/1.1/"
   xmlns:cc="http://creativecommons.org/ns#"
   xmlns:rdf="http://www.w3.org/1999/02/22-rdf-syntax-ns#"
   xmlns:svg="http://www.w3.org/2000/svg"
   xmlns="http://www.w3.org/2000/svg"
   xmlns:sodipodi="http://sodipodi.sourceforge.net/DTD/sodipodi-0.dtd"
   xmlns:inkscape="http://www.inkscape.org/namespaces/inkscape"
   height="60"
   viewBox="0 0 30 30"
   width="60"
   id="svg3035"
   version="1.1"
   inkscape:version="0.48.4 r9939"
   sodipodi:docname="nota.svg"
   style="fill:#000000">
  <title
     id="title3022">Nota</title>
  <metadata
     id="metadata3045">
    <rdf:RDF>
      <cc:Work
         rdf:about="">
        <dc:format>image/svg+xml</dc:format>
        <dc:type
           rdf:resource="http://purl.org/dc/dcmitype/StillImage" />
        <dc:title>Nota</dc:title>
        <dc:creator>
          <cc:Agent>
            <dc:title>Romina Racca</dc:title>
          </cc:Agent>
        </dc:creator>
        <dc:language>Español</dc:language>
      </cc:Work>
    </rdf:RDF>
  </metadata>
  <defs
     id="defs3043" />
  <sodipodi:namedview
     pagecolor="#ffffff"
     bordercolor="#666666"
     borderopacity="1"
     objecttolerance="10"
     gridtolerance="10"
     guidetolerance="10"
     inkscape:pageopacity="0"
     inkscape:pageshadow="2"
     inkscape:window-width="1867"
     inkscape:window-height="1056"
     id="namedview3041"
     showgrid="false"
     inkscape:zoom="11.313709"
     inkscape:cx="31.876649"
     inkscape:cy="32.507153"
     inkscape:window-x="1413"
     inkscape:window-y="24"
     inkscape:window-maximized="1"
     inkscape:current-layer="svg3035"
     inkscape:snap-page="false"
     height="2104.72px"
     units="px" />
  <path
     d="M 6.5406383,4.295469 C 5.1432914,4.2985156 4.0127034,5.4384693 4.0127034,6.8354693 L 4,27.162469 c 0,1.397 1.1305846,2.54 2.5279348,2.54 l 15.2565442,0 c 1.397344,0 2.540617,-1.143 2.540617,-2.54 l 0.08203,-15.167828 -7.731548,-7.7212691 z m 10.1317587,7.74 0,-7.799 4.922877,4.9228112 2.833226,2.8331888 z"
     id="path3037"
     style="fill:#aa0000"
     inkscape:connector-curvature="0"
     sodipodi:nodetypes="sccsssccsccccc" />
  <path
     d="M 0,5.9974693 H 24 V 29.997469 H 0 z"
     id="path3039"
     inkscape:connector-curvature="0"
     style="fill:none" />
  <text
     xml:space="preserve"
     style="font-size:20px;font-style:normal;font-weight:bold;line-height:125%;letter-spacing:0px;word-spacing:0px;fill:#000000;fill-opacity:1;stroke:none;font-family:Sans;-inkscape-font-specification:Sans Bold"
     x="6.5488963"
     y="22.230371"
     id="text3047"
     sodipodi:linespacing="125%"><tspan
       sodipodi:role="line"
       id="tspan3049"
       x="6.5488963"
       y="22.230371"
       style="font-size:5px;fill:#ffffff">NOTA</tspan></text>
  <path
     style="fill:#e9afaf"
     d="m 33.349517,16.312676 0,-7.7367235 3.640495,3.6252735 c 2.002272,1.9939 5.475096,5.46051 7.717385,7.703578 l 4.07689,4.078305 -1.104832,5.01e-4 c -0.607657,2.77e-4 -3.501261,0.01496 -6.430229,0.03263 -2.928969,0.01767 -5.904618,0.03236 -6.612554,0.03264 l -1.287155,5.14e-4 0,-7.736724 z"
     id="path3028"
     inkscape:connector-curvature="0"
     transform="scale(0.5,0.5)" />
</svg>
