<?xml version="1.0" encoding="UTF-8" standalone="no"?>
<svg
   xmlns:dc="http://purl.org/dc/elements/1.1/"
   xmlns:cc="http://creativecommons.org/ns#"
   xmlns:rdf="http://www.w3.org/1999/02/22-rdf-syntax-ns#"
   xmlns:svg="http://www.w3.org/2000/svg"
   xmlns="http://www.w3.org/2000/svg"
   xmlns:sodipodi="http://sodipodi.sourceforge.net/DTD/sodipodi-0.dtd"
   xmlns:inkscape="http://www.inkscape.org/namespaces/inkscape"
   viewBox="0 0 64 64"
   version="1.1"
   id="svg4152"
   height="64"
   width="64"
   inkscape:version="0.91 r13725"
   sodipodi:docname="oficio.svg">
  <sodipodi:namedview
     pagecolor="#ffffff"
     bordercolor="#666666"
     borderopacity="1"
     objecttolerance="10"
     gridtolerance="10"
     guidetolerance="10"
     inkscape:pageopacity="0"
     inkscape:pageshadow="2"
     inkscape:window-width="960"
     inkscape:window-height="1021"
     id="namedview11516"
     showgrid="false"
     inkscape:zoom="3.6875"
     inkscape:cx="0.27118644"
     inkscape:cy="32"
     inkscape:window-x="0"
     inkscape:window-y="27"
     inkscape:window-maximized="0"
     inkscape:current-layer="svg4152" />
  <defs
     id="defs4154" />
  <metadata
     id="metadata4157">
    <rdf:RDF>
      <cc:Work
         rdf:about="">
        <dc:format>image/svg+xml</dc:format>
        <dc:type
           rdf:resource="http://purl.org/dc/dcmitype/StillImage" />
        <dc:title></dc:title>
      </cc:Work>
    </rdf:RDF>
  </metadata>
  <g
     id="layer1">
    <g
       style="fill:#f8bbd0;fill-opacity:0.86274511"
       transform="translate(0.72727509,-7e-7)"
       id="layer2">
      <path
         style="fill:#f8bbd0;fill-opacity:0.86274511;fill-rule:evenodd;stroke:none;stroke-width:1px;stroke-linecap:butt;stroke-linejoin:miter;stroke-opacity:1"
         d="m 38.055201,3.3173816 -0.03214,4.1140758 c 0,0 -0.385694,3.7605226 -0.385694,3.8890876 0,0.128565 0.449977,3.728381 0.578541,4.049793 0.128565,0.321412 0.417836,3.43911 0.77139,3.95337 0.353553,0.514259 4.917606,2.63558 5.592571,2.63558 0.674966,0 6.010408,0.09642 6.138973,0.09642 0.128565,0 4.146217,-1.671343 4.146217,-1.671343 L 55.18647,20.030815 38.601602,2.9959694 Z"
         id="path4871" />
    </g>
    <g
       style="fill:#e91e63;fill-opacity:1"
       transform="translate(0.72727509,-7e-7)"
       id="layer1-6">
      <path
         id="path3921"
         d="m 16.636362,2.5454546 c -3.049999,0 -5.517726,2.6181813 -5.517726,5.8181813 l -0.02773,46.5454551 c 0,3.2 2.467727,5.818183 5.517726,5.818183 l 33.300454,0 c 3.05,0 5.545455,-2.618183 5.545455,-5.818183 L 55.454544,20 38.818181,2.5454546 Z M 38.936529,3.5097484 54.809605,20.058875 C 37.188865,20.214889 39.359559,22.133976 38.936529,3.5097484 Z"
         style="fill:#e91e63;fill-opacity:1" />
    </g>
  </g>
  <g
     transform="translate(4.8136492,-1.3564324)"
     style="font-style:normal;font-variant:normal;font-weight:normal;font-stretch:normal;font-size:6.25px;line-height:125%;font-family:Roboto;-inkscape-font-specification:'Roboto, Normal';text-align:start;letter-spacing:0px;word-spacing:0px;writing-mode:lr-tb;text-anchor:start;fill:#000000;fill-opacity:1;stroke:none;stroke-width:1px;stroke-linecap:butt;stroke-linejoin:miter;stroke-opacity:1"
     id="flowRoot6805">
    <path
       d="m 23.824707,44.561356 q 0,1.629639 -1.013184,2.703858 -1.00708,1.074218 -2.618408,1.074218 -1.556396,0 -2.532959,-1.074218 -0.970459,-1.074219 -0.970459,-2.703858 l 0,-1.58081 q 0,-1.623535 0.970459,-2.703858 0.976563,-1.080322 2.532959,-1.080322 1.611328,0 2.618408,1.080322 1.013184,1.074219 1.013184,2.703858 l 0,1.58081 z m -1.202393,-1.593017 q 0,-1.220703 -0.659179,-2.001953 -0.65918,-0.78125 -1.77002,-0.78125 -1.049804,0 -1.678467,0.78125 -0.622558,0.78125 -0.622558,2.001953 l 0,1.593017 q 0,1.23291 0.622558,2.01416 0.628663,0.78125 1.678467,0.78125 1.116944,0 1.77002,-0.775146 0.659179,-0.78125 0.659179,-2.020264 l 0,-1.593017 z"
       style="font-size:12.5px;fill:#ffffff"
       id="path12083" />
    <path
       d="m 30.874268,44.280594 -4.052735,0 0,3.930665 -1.202392,0 0,-8.886719 5.877685,0 0,0.946045 -4.675293,0 0,3.063965 4.052735,0 0,0.946044 z"
       style="font-size:12.5px;fill:#ffffff"
       id="path12085" />
    <path
       d="m 34.164062,48.211259 -1.208496,0 0,-8.886719 1.208496,0 0,8.886719 z"
       style="font-size:12.5px;fill:#ffffff"
       id="path12087" />
    <path
       d="m 42.715088,45.36702 0.01221,0.03662 q 0.02441,1.251221 -0.878906,2.093506 -0.903321,0.842285 -2.386475,0.842285 -1.507568,0 -2.459717,-1.068115 -0.946045,-1.068115 -0.946045,-2.709961 l 0,-1.58081 q 0,-1.641846 0.946045,-2.709961 0.952149,-1.074219 2.459717,-1.074219 1.507568,0 2.398682,0.805664 0.891113,0.799561 0.866699,2.124023 l -0.01221,0.03662 -1.153565,0 q 0,-0.933838 -0.549316,-1.477051 -0.549316,-0.543213 -1.550293,-0.543213 -1.00708,0 -1.605225,0.811767 -0.598144,0.811768 -0.598144,2.014161 l 0,1.593017 q 0,1.2146 0.598144,2.026367 0.598145,0.811768 1.605225,0.811768 1.000977,0 1.550293,-0.537109 0.549316,-0.543213 0.549316,-1.495362 l 1.153565,0 z"
       style="font-size:12.5px;fill:#ffffff"
       id="path12089" />
  </g>
</svg>
